<?xml version="1.0" encoding="UTF-8"?>
<svg version="1.1" xmlns="http://www.w3.org/2000/svg" width="200" height="200">
<path d="M0 0 C0.99902344 0.35964844 1.99804688 0.71929688 3.02734375 1.08984375 C18.64247661 7.05856249 32.86887612 19.51131968 42.6015625 33.0546875 C43.46071813 34.24982578 44.34633619 35.42707715 45.2734375 36.5703125 C52.3075062 45.48610658 55.81331603 57.00903582 58 68 C58.2165625 69.02609375 58.433125 70.0521875 58.65625 71.109375 C62.96923419 94.3767897 55.89661981 118.5248318 43.0390625 137.96484375 C35.35847455 148.73707631 26.00440087 156.89548287 15.1796875 164.44140625 C12.93233551 165.95839949 12.93233551 165.95839949 11 168 C9.0390625 168.7109375 9.0390625 168.7109375 6.625 169.375 C1.76506383 170.7545496 -2.98774311 172.35077846 -7.75 174.03515625 C-17.95196802 177.06386551 -27.8106975 177.36079395 -38.375 177.3125 C-39.17513519 177.31100952 -39.97527039 177.30951904 -40.7996521 177.3079834 C-53.07663647 177.26682103 -64.98353037 176.71770023 -77 174 C-77.99169189 173.7831958 -77.99169189 173.7831958 -79.00341797 173.56201172 C-94.5383786 170.0698361 -114.33815294 164.56574832 -125 152 C-123.6278668 147.70843445 -122.27302023 143.56626418 -120.3125 139.5 C-118.27167471 134.05779922 -117.76944316 129.73191582 -120.20703125 124.3203125 C-120.97080078 122.89332031 -120.97080078 122.89332031 -121.75 121.4375 C-131.45883595 103.00911706 -132.41863473 78.4433925 -126.390625 58.59765625 C-122.05255199 47.37472019 -116.52171448 37.43374695 -109 28 C-108.33613281 27.1440625 -107.67226562 26.288125 -106.98828125 25.40625 C-92.93851152 8.40299233 -69.45877932 -3.01447761 -47.8359375 -5.6875 C-31.35287603 -7.0303156 -15.5637893 -5.94781296 0 0 Z " fill="#4BF9B1" transform="translate(129,23)"/>
<path d="M0 0 C0.99902344 0.35964844 1.99804688 0.71929688 3.02734375 1.08984375 C18.64247661 7.05856249 32.86887612 19.51131968 42.6015625 33.0546875 C43.46071813 34.24982578 44.34633619 35.42707715 45.2734375 36.5703125 C52.3075062 45.48610658 55.81331603 57.00903582 58 68 C58.2165625 69.02609375 58.433125 70.0521875 58.65625 71.109375 C62.96923419 94.3767897 55.89661981 118.5248318 43.0390625 137.96484375 C35.35847455 148.73707631 26.00440087 156.89548287 15.1796875 164.44140625 C12.93233551 165.95839949 12.93233551 165.95839949 11 168 C9.0390625 168.7109375 9.0390625 168.7109375 6.625 169.375 C1.76506383 170.7545496 -2.98774311 172.35077846 -7.75 174.03515625 C-17.95196802 177.06386551 -27.8106975 177.36079395 -38.375 177.3125 C-39.17513519 177.31100952 -39.97527039 177.30951904 -40.7996521 177.3079834 C-53.07663647 177.26682103 -64.98353037 176.71770023 -77 174 C-77.99169189 173.7831958 -77.99169189 173.7831958 -79.00341797 173.56201172 C-94.5383786 170.0698361 -114.33815294 164.56574832 -125 152 C-123.6278668 147.70843445 -122.27302023 143.56626418 -120.3125 139.5 C-118.27167471 134.05779922 -117.76944316 129.73191582 -120.20703125 124.3203125 C-120.97080078 122.89332031 -120.97080078 122.89332031 -121.75 121.4375 C-131.45883595 103.00911706 -132.41863473 78.4433925 -126.390625 58.59765625 C-122.05255199 47.37472019 -116.52171448 37.43374695 -109 28 C-108.33613281 27.1440625 -107.67226562 26.288125 -106.98828125 25.40625 C-92.93851152 8.40299233 -69.45877932 -3.01447761 -47.8359375 -5.6875 C-31.35287603 -7.0303156 -15.5637893 -5.94781296 0 0 Z M-57 20 C-57.97066406 20.32871094 -58.94132812 20.65742187 -59.94140625 20.99609375 C-79.22152323 28.26070106 -92.6381447 42.30910985 -101.375 60.75 C-107.00240296 74.69742424 -107.53733206 93.10142154 -102.26953125 107.2109375 C-99.40424502 113.50575095 -96.3095248 119.40105692 -92.0625 124.875 C-90 128 -90 128 -90.0625 130.6875 C-91 133 -91 133 -92.0625 134.9375 C-93.36850146 137.8107032 -93.39777218 139.88411795 -93 143 C-80.68796249 155.03501666 -51.1076608 154.48870721 -35.21582031 154.42602539 C-16.89174352 153.97091554 1.17005735 147.39656473 14 134 C14.80179687 133.20722656 15.60359375 132.41445312 16.4296875 131.59765625 C28.12255772 119.47517579 34.13146506 104.85979593 35 88 C35.09667969 86.63101563 35.09667969 86.63101563 35.1953125 85.234375 C35.9019964 67.61438984 28.24087697 51.91166994 16.86328125 38.859375 C8.85822128 30.53524209 -1.08002896 24.61251872 -12 21 C-13.70736328 20.41412109 -13.70736328 20.41412109 -15.44921875 19.81640625 C-29.1405571 15.61152125 -43.37384561 15.27957905 -57 20 Z " fill="#242725" transform="translate(129,23)"/>
<path d="M0 0 C4.23534814 2.22378846 6.68246993 5.09540861 8.79296875 9.31640625 C10.24512207 15.31863996 10.06402089 19.95674311 6.79296875 25.31640625 C3.3437277 29.06664239 0.02572367 31.92745546 -5.1875 32.5546875 C-11.01810051 32.75076079 -15.45637126 31.83103479 -20.20703125 28.31640625 C-24.02195034 23.52330278 -25.57901653 19.6114056 -25.48828125 13.44140625 C-24.84285969 8.56488778 -22.18985044 5.20562361 -18.58203125 1.94140625 C-13.17235685 -1.75994992 -6.25829751 -1.93841073 0 0 Z " fill="#232524" transform="translate(189.20703125,0.68359375)"/>
<path d="M0 0 C0.66 0.33 1.32 0.66 2 1 C-1.32307692 4.93846154 -1.32307692 4.93846154 -4.75 5.25 C-5.4925 5.1675 -6.235 5.085 -7 5 C-2.25 1.125 -2.25 1.125 0 0 Z " fill="#8BE168" transform="translate(142,186)"/>
</svg>
